<?xml version="1.0" ?><svg enable-background="new 0 0 512 512" id="Layer_1" version="1.1" viewBox="0 0 512 512" xml:space="preserve" xmlns="http://www.w3.org/2000/svg" xmlns:xlink="http://www.w3.org/1999/xlink"><g><path d="M388.3,301.5l-14.4-22.8c-1.3,3.1-2,6.5-2,10.1c0,14.5,11.7,26.2,26.2,26.2c14.5,0,26.2-11.7,26.2-26.2   c0-14-11.1-25.5-24.9-26.1l14.4,22.8L388.3,301.5z"/><path d="M398.1,238.7c-4.5,0-8.8,0.6-12.9,1.7l9.8,15.5c1-0.1,2.1-0.1,3.1-0.1c18.3,0,33.2,14.8,33.2,33.2S416.4,322,398.1,322   c-18.3,0-33.2-14.8-33.2-33.2c0-6.2,1.7-12,4.7-17l-9.8-15.5c-7.4,8.8-11.9,20.1-11.9,32.5c0,27.7,22.5,50.2,50.2,50.2   s50.2-22.5,50.2-50.2S425.8,238.7,398.1,238.7z"/><rect height="19" transform="matrix(-0.5339 -0.8455 0.8455 -0.5339 361.0705 689.8609)" width="102.7" x="319.3" y="235.9"/><path d="M327.1,182.2H338c6.4,0,12.5,2.5,17,7l2.2,2.2c4.6,4.6,6.5,11.2,5.2,17.6l0,0.2L373,226l4.9-5.9c3-3.5,4.6-8,4.6-12.6   c0-6.7-3.4-12.9-9-16.6l-19.6-12.6c-3.9-2.5-8.4-3.8-13-3.8L308,173l2.8,3.7C315.5,180.3,321.2,182.2,327.1,182.2z"/><path d="M113.9,322c-18.3,0-33.2-14.8-33.2-33.2s14.8-33.2,33.2-33.2c13.5,0,25.1,8.1,30.3,19.7h18c-5.9-21.1-25.3-36.7-48.3-36.7   c-27.7,0-50.2,22.5-50.2,50.2S86.2,339,113.9,339c23.3,0,42.8-15.8,48.5-37.3h-17.9C139.5,313.6,127.7,322,113.9,322z"/><path d="M136.3,275.3c-4.6-7.6-12.9-12.7-22.4-12.7c-14.5,0-26.2,11.7-26.2,26.2c0,14.5,11.7,26.2,26.2,26.2   c9.8,0,18.3-5.4,22.8-13.3h-33.1v-26.3H136.3z"/><polygon points="328.1,316.7 334.8,310 334.8,240.4 328.1,233.7  "/><path d="M168.3,258v3.7h51l52.6-74h-0.4c-1.3,0-2.5,0-3.8,0.1L217.7,258H168.3z"/><path d="M331.6,206c-1-0.9-1.9-1.7-2.9-2.5l17.8-8.6c1.7-0.8,2.5-2.9,1.6-4.7c-0.8-1.7-2.9-2.5-4.7-1.6L322,198.9   c-13.8-8.3-30.8-11.2-47.1-11.2h-0.7l-54,76h-52v16.7h-59.7v16.3h59.7V308l9.3,9.3h148v-83.6h-10.5c-2.2,0-3.9-1.8-3.8-4   c0.1-2.1,2-3.6,4-3.6h14.9c5.8,0,9.4-6.3,6.5-11.3C336.7,214.7,333.9,208.2,331.6,206z M193.6,311.2c-5.4,0-9.8-4.4-9.8-9.8   c0-5.4,4.4-9.8,9.8-9.8s9.8,4.4,9.8,9.8C203.4,306.8,199,311.2,193.6,311.2z M318.9,255.7l-25.2-4.8v51l25.2-8.2l-29,15.3v-65   L318.9,255.7z M327,207.9c-0.2,0.2-0.5,0.3-0.7,0.3c-0.2,0-0.5-0.1-0.7-0.3c-20.6-18.7-49-16.8-49.3-16.7c-0.5,0-1-0.4-1.1-0.9   c0-0.6,0.4-1,0.9-1.1c0.3,0,29.5-2,50.7,17.3C327.3,206.9,327.4,207.5,327,207.9z"/><path d="M176.1,239.5l2.5,4.9l-10.3,6.3v3.3h47.3l46.9-65.9c-15.2,1.2-30,5.6-43.4,12.9l-13.8,7.5c-3.1,1.7-6.6,2.6-10.1,2.6h-21.9   c-6.4,0-12.1-3.5-15.7-8.8c-0.9-1.4-2.5-2.3-4.3-2.5c-22.2-1.4-39.4,6.2-39.4,6.2l23.4,6.4C153,216.7,166.7,226.2,176.1,239.5z"/></g></svg>